<svg width="177" height="227" xmlns="http://www.w3.org/2000/svg">
 <g>
  <title>Layer 1</title>
  <svg version="1.1" id="svg_2" x="0" y="0" viewBox="0 0 249.40234375 319.26953125" enable-background="new 0 0 249.388 319.266" xml:space="preserve" height="227" width="177.52417" preserveAspectRatio="xMinYMin" xmlns="http://www.w3.org/2000/svg" xmlns:xlink="http://www.w3.org/1999/xlink">
   <path fill-rule="evenodd" clip-rule="evenodd" d="m175.139,0c0.188,50.502 0.026,101.343 0.081,151.981c7.029,4.413 14.754,8.858 22.186,13.279c0.786,0.468 2.936,1.392 3.158,2.024c0.295,0.84 0,3.096 0,4.534c0,46.441 0,94.123 0,140.24c0,0.055 0,0.108 0,0.162c16.248,0 32.496,0 48.744,0c0.188,2.188 0.027,4.723 0.08,7.045c-83.078,0 -166.145,0 -249.226,0c-0.094,0.013 -0.144,-0.018 -0.162,-0.082c0,-2.32 0,-4.642 0,-6.963c14.251,0 28.502,0 42.752,0c0.148,-57.041 0.081,-115.896 0.081,-173.6c0,-1.756 -0.413,-4.604 0,-5.749c0.305,-0.846 2.996,-1.925 3.967,-2.51c9.285,-5.587 19.034,-11.289 28.178,-16.761c0,-18.083 0,-36.166 0,-54.25c33.423,-19.745 66.753,-39.589 100.161,-59.35zm-8.097,14.008c-26.881,15.875 -54.513,32.353 -81.618,48.339c-0.74,0.437 -2.373,1.295 -2.51,1.7c-0.423,1.247 0,3.925 0,5.587c0,13.192 0,26.284 0,39.19c10.497,-5.967 21.339,-12.723 31.821,-18.704c0,73.737 0,147.474 0,221.21c9.069,0 18.138,0 27.206,0c0,-59.624 0,-119.24 0,-178.863c8.334,4.595 17.068,10.354 25.344,14.737c0,-44.426 0,-88.851 0,-133.277c0.025,-0.164 -0.234,0.016 -0.243,0.081zm-60.485,90.12c-6.644,3.845 -13.945,8.249 -20.729,12.307c-0.807,0.483 -2.697,1.206 -2.915,1.862c-0.399,1.206 0,4.179 0,5.992c0.003,62.14 -0.136,125.691 0.162,187.041c7.908,0 15.816,0 23.724,0c0,-69.101 0,-138.185 0,-207.284c0.026,-0.164 -0.233,0.017 -0.242,0.082zm-31.821,18.866c-6.847,4.018 -14.031,8.283 -21.052,12.389c-0.681,0.398 -2.734,1.43 -2.915,1.943c-0.37,1.05 0,3.779 0,5.425c0,56.064 0,113.037 0,168.58c8.07,0 16.14,0 24.21,0c0,-62.813 0,-125.608 0,-188.417c0.024,-0.165 -0.234,0.016 -0.243,0.08zm75.14,23.562c0,54.923 0,109.852 0,164.774c5.775,-0.054 11.768,0.107 17.408,-0.081c0,-49.259 0.002,-100.055 0,-149.633c0,-1.484 0.319,-3.952 0,-4.858c-0.142,-0.404 -1.439,-1.033 -2.023,-1.376c-5.139,-3.018 -10.48,-6.185 -15.304,-9.068c-0.095,0.013 -0.088,0.127 -0.081,0.242zm25.344,164.775c5.803,0 11.605,0 17.408,0c0,-46.561 0,-93.115 0,-139.674c-5.743,-3.46 -11.533,-6.874 -17.327,-10.283c-0.189,49.498 -0.027,100.054 -0.081,149.957z" fill=" #511313" id="svg_3"/>
  </svg>
 </g>

</svg>